<?xml version="1.0" encoding="utf-8" ?><svg xmlns="http://www.w3.org/2000/svg" xmlns:xlink="http://www.w3.org/1999/xlink" width="222" height="304" viewBox="0 0 222 304"><path fill="#A3CC5F" d="M77.0886 39.7455C81.1782 40.8745 84.7383 43.0977 88.173 45.507C108.321 59.6403 120.458 78.2749 124.416 102.731C132.279 104.183 141.494 106.932 148.638 110.557C162.566 117.58 174.341 128.231 182.721 141.387C184.164 143.627 186.611 147.462 187.417 149.925C184.994 157.706 172.905 171.839 166.765 177.166C149.584 192.071 128.297 197.868 105.808 196.461C89.2172 195.424 66.0644 185.778 55.0242 173.202C51.8904 195.728 56.7396 214.977 74.2705 230.247C90.1216 244.054 107.745 247.053 127.858 243.671C138.034 241.3 149.093 234.671 156.338 227.153C159.824 223.537 162.809 219.22 165.598 215.077C169.902 217.052 180.101 223.043 184.3 225.827C182.904 229.337 180.495 232.105 178.261 235.085C156.669 263.89 117.39 274.92 83.8867 261.89C77.4204 259.376 72.2594 256.282 66.5346 252.428C64.2354 251.378 61.1867 248.755 59.2184 247.024C49.0048 238.129 41.0429 226.942 35.9842 214.379C28.7129 196.336 28.7565 175.693 35.3967 157.554C36.4019 154.808 37.6084 152.177 38.7526 149.485C35.0172 140.403 31.9211 132.733 31.2372 122.731C30.3704 110.055 31.2491 98.4753 35.5293 86.458C41.7432 69.387 53.3094 54.7823 68.5027 44.8225C71.3178 42.9558 74.0328 41.1952 77.0886 39.7455ZM65.4586 149.928C74.0856 160.75 86.7054 169.418 100.406 172.029C105.707 173.039 112.933 174.007 118.311 173.404C134.577 171.707 148.804 165.257 159.271 152.353C159.99 151.461 160.698 150.559 161.395 149.649C158.795 146.982 156.963 144.39 154.113 141.787C143.616 132.241 129.968 126.903 115.781 126.794C113.838 126.769 110.582 126.719 108.683 126.859C91.8343 127.795 77.1847 136.869 66.1007 149.159C65.8772 149.407 65.663 149.664 65.4586 149.928ZM67.5442 117.613C77.3023 110.7 89.054 106.272 100.875 104.655C102.013 104.499 100.952 100.784 100.796 100.148C97.6527 87.2801 90.0364 75.6412 79.5835 67.5209C79.1521 67.1857 77.8277 66.0101 77.3611 65.9231C62.7997 78.8287 54.8297 90.7467 53.4343 111.035C53.1839 114.675 53.6056 124.462 54.926 127.751C55.7717 127.505 64.7898 118.969 67.5442 117.613Z"/><path d="M77.0886 39.7455C81.1782 40.8745 84.7383 43.0977 88.173 45.507C108.321 59.6403 120.458 78.2749 124.416 102.731C132.279 104.183 141.494 106.932 148.638 110.557C162.566 117.58 174.341 128.231 182.721 141.387C184.164 143.627 186.611 147.462 187.417 149.925C184.994 157.706 172.905 171.839 166.765 177.166C149.584 192.071 128.297 197.868 105.808 196.461C89.2172 195.424 66.0644 185.778 55.0242 173.202C51.8904 195.728 56.7396 214.977 74.2705 230.247C90.1216 244.054 107.745 247.053 127.858 243.671C121.778 246.018 108.346 245.565 101.671 244.303C81.4595 240.483 63.7199 225.259 56.6729 205.954C52.1905 193.674 52.3822 183.725 54.5435 171.059C63.2377 179.368 70.8585 184.765 81.7302 189.541C112.579 203.093 149.628 194.96 172.609 170.537C177.731 165.094 183.829 157.054 186.788 150.168C176.321 126.881 153.769 109.752 128.558 105.352C127.006 105.081 124.887 104.74 123.34 104.691C119.826 81.3535 109.931 63.1272 90.7002 48.9523C86.1898 45.6278 82.2829 43.5142 77.3833 40.7511C56.1794 52.2512 41.8445 68.7645 34.8044 92.032C29.9548 108.06 30.6329 123.634 35.7484 139.556C36.9537 143.308 39.031 146.874 40.0388 150.033C38.8459 152.628 37.3944 155.641 36.4331 158.304C29.9073 176.227 29.9968 195.892 36.6853 213.755C40.9109 225.179 48.3665 236.332 57.2719 244.668C60.3518 247.551 63.7249 249.848 66.5346 252.428C64.2354 251.378 61.1867 248.755 59.2184 247.024C49.0048 238.129 41.0429 226.942 35.9842 214.379C28.7129 196.336 28.7565 175.693 35.3967 157.554C36.4019 154.808 37.6084 152.177 38.7526 149.485C35.0172 140.403 31.9211 132.733 31.2372 122.731C30.3704 110.055 31.2491 98.4753 35.5293 86.458C41.7432 69.387 53.3094 54.7823 68.5027 44.8225C71.3178 42.9558 74.0328 41.1952 77.0886 39.7455Z"/><path fill="#091207" d="M107.373 125.625C109.347 125.516 111.325 125.456 113.302 125.442C128.395 125.349 142.976 130.909 154.176 141.027C157.423 143.986 159.502 147.01 162.446 149.92C159.601 152.47 156.961 156.06 154.08 158.648C143.691 167.979 132.731 172.409 119.057 174.19C115.155 174.506 112.058 174.571 108.168 174.215C94.4275 173.06 81.4849 167.28 71.4551 157.817C69.0501 155.518 66.5248 152.429 64.3737 149.845C67.3737 146.705 69.5286 143.816 72.8069 140.783C82.3701 132.1 94.5071 126.777 107.373 125.625ZM65.4586 149.928C74.0856 160.75 86.7054 169.418 100.406 172.029C105.707 173.039 112.933 174.007 118.311 173.404C134.577 171.707 148.804 165.257 159.271 152.353C159.99 151.461 160.698 150.559 161.395 149.649C158.795 146.982 156.963 144.39 154.113 141.787C143.616 132.241 129.968 126.903 115.781 126.794C113.838 126.769 110.582 126.719 108.683 126.859C91.8343 127.795 77.1847 136.869 66.1007 149.159C65.8772 149.407 65.663 149.664 65.4586 149.928Z"/><path fill="#A3CC5F" d="M148.685 37.1535C150.077 35.7749 151.833 34.6474 153.439 33.54C161.473 27.9997 170.271 26.0654 179.848 26.0162C182.973 25.8577 195.858 27.2556 197.968 29.8029C200.581 32.9568 201.519 45.894 201.442 49.7902C201.186 62.6497 195.735 74.1217 186.72 83.1679C184.963 84.9303 182.529 86.3222 180.491 87.7422C171.163 94.3399 161.927 95.7236 150.816 95.5137C146.204 95.4266 137.982 94.1893 133.992 91.833C132.782 89.0324 131.53 81.9989 131.515 78.9638C130.105 68.6718 133.039 51.8649 141.017 44.6967C142.388 42.6251 146.515 38.1542 148.685 37.1535ZM154.309 73.8784C168.832 72.931 178.491 63.2246 179.134 48.6387L178.805 48.4053C165.814 49.7648 156.821 57.092 154.273 70.1167C154.095 71.0259 153.534 73.0418 153.87 73.8587L154.309 73.8784Z"/><path d="M148.685 37.1535C150.077 35.7749 151.833 34.6474 153.439 33.54C161.473 27.9997 170.271 26.0654 179.848 26.0162C182.973 25.8577 195.858 27.2556 197.968 29.8029C200.581 32.9568 201.519 45.894 201.442 49.7902C201.186 62.6497 195.735 74.1217 186.72 83.1679C184.963 84.9303 182.529 86.3222 180.491 87.7422C171.163 94.3399 161.927 95.7236 150.816 95.5137C146.204 95.4266 137.982 94.1893 133.992 91.833C132.782 89.0324 131.53 81.9989 131.515 78.9638C131.875 78.788 132.511 78.248 132.852 77.978C133.245 83.1783 133.961 86.5879 135.622 91.5196C137.489 92.8306 139.618 93.6216 141.859 94.0124C155.521 96.3945 167.642 95.4795 179.474 87.8316C189.572 81.2118 196.619 70.8444 199.059 59.0192C200.588 51.7824 200.408 38.4546 197.251 30.9209C196.642 29.4678 190.791 28.6339 188.95 28.2515C174.919 25.3372 163.102 28.3746 151.447 36.3289C150.607 36.627 149.455 37.2224 148.685 37.1535Z"/><defs><linearGradient id="gradient_0" gradientUnits="userSpaceOnUse" x1="143.74919" y1="70.027977" x2="130.90372" y2="51.834515"><stop offset="0" stop-color="black"/><stop offset="1" stop-color="#162814"/></linearGradient></defs><path fill="url(#gradient_0)" d="M141.017 44.6967C142.116 44.2935 142.435 43.6141 143.899 43.5201C136.117 53.4814 131.531 65.1241 132.852 77.978C132.511 78.248 131.875 78.788 131.515 78.9638C130.105 68.6718 133.039 51.8649 141.017 44.6967Z"/><path fill="#091207" d="M148.685 37.1535C149.455 37.2224 150.607 36.627 151.447 36.3289C148.105 39.0423 146.758 40.2245 143.899 43.5201C142.435 43.6141 142.116 44.2935 141.017 44.6967C142.388 42.6251 146.515 38.1542 148.685 37.1535Z"/><path fill="#091207" d="M178.805 48.4053L179.134 48.6387C178.491 63.2246 168.832 72.931 154.309 73.8784L153.87 73.8587C153.534 73.0418 154.095 71.0259 154.273 70.1167C156.821 57.092 165.814 49.7648 178.805 48.4053ZM157.303 72.6911C166.141 71.4654 173.123 65.8279 176.337 57.4926C177.331 54.9153 177.445 52.9812 177.615 50.2423L175.279 50.3552C173.074 50.4861 171.517 50.9867 169.439 51.7665C165.925 53.0852 163.095 54.9911 160.587 57.7876C156.921 61.8746 155.126 67.1203 154.577 72.5146C154.572 72.5684 154.634 72.8134 154.655 72.884C155.735 72.9503 156.223 72.8565 157.303 72.6911Z"/></svg>